<svg width="42" height="31" viewBox="0 0 42 31" fill="none" xmlns="http://www.w3.org/2000/svg">
<g id="icone-prato">
<g id="&#240;&#159;&#166;&#134; emoji &#34;fork and knife with plate&#34;">
<g id="Group">
<path id="Vector" d="M41.3339 7.90386C41.3339 4.04507 38.0093 0.00785174 38.0093 1.21871C38.0093 2.42957 38.6242 18.5108 38.6242 18.5108L38.0093 29.0269C38.0093 29.7441 38.5907 30.3255 39.3079 30.3255C40.0251 30.3255 40.6064 29.7441 40.6064 29.0269L40.263 18.4505C40.263 18.4505 41.3339 11.7627 41.3339 7.90386Z" stroke="#FCC436" stroke-width="0.820339" stroke-miterlimit="10"/>
<g id="Vector_2">
<mask id="path-2-inside-1_23_3357" fill="white">
<path d="M41.3339 7.90386C41.3339 4.04507 38.0093 0.00785172 38.0093 1.21871C38.0093 2.42957 38.6242 18.5108 38.6242 18.5108L38.0093 29.0269C38.0093 29.7441 38.5907 30.3255 39.3079 30.3255C40.0251 30.3255 40.6064 29.7441 40.6064 29.0269L40.263 18.4505C40.263 18.4505 41.3339 11.7627 41.3339 7.90386Z"/>
</mask>
<path d="M38.6242 18.5108L42.7189 18.7503L42.7305 18.5523L42.7229 18.3541L38.6242 18.5108ZM38.0093 29.0269L33.9146 28.7875L33.9076 28.9071V29.0269H38.0093ZM40.6064 29.0269H44.7081V28.9604L44.706 28.8938L40.6064 29.0269ZM40.263 18.4505L36.2129 17.8019L36.1507 18.1904L36.1635 18.5836L40.263 18.4505ZM45.4356 7.90386C45.4356 4.92781 44.2102 2.19614 43.1574 0.498499C42.6398 -0.336273 41.9673 -1.2418 41.2058 -1.89779C40.9998 -2.07525 40.6994 -2.31139 40.3179 -2.52472C40.0017 -2.7015 39.2571 -3.07782 38.2444 -3.10061C36.9605 -3.12951 35.538 -2.56044 34.649 -1.24606C33.9564 -0.22197 33.9076 0.801142 33.9076 1.21871H42.111C42.111 1.48492 42.0881 2.39768 41.4442 3.34976C40.6039 4.59214 39.2528 5.12755 38.0598 5.1007C37.1381 5.07995 36.5039 4.74139 36.3143 4.6354C36.0594 4.49287 35.9018 4.36058 35.8517 4.31738C35.7135 4.19839 35.8723 4.31631 36.1857 4.82183C36.7953 5.80478 37.2322 7.02112 37.2322 7.90386H45.4356ZM33.9076 1.21871C33.9076 1.92396 34.0668 6.3726 34.2178 10.4699C34.2948 12.5574 34.3717 14.6067 34.4294 16.134C34.4582 16.8977 34.4822 17.531 34.4991 17.9734C34.5075 18.1946 34.5141 18.3681 34.5186 18.4863C34.5209 18.5454 34.5226 18.5907 34.5238 18.6212C34.5243 18.6365 34.5248 18.6481 34.5251 18.6558C34.5252 18.6597 34.5253 18.6626 34.5254 18.6646C34.5254 18.6656 34.5255 18.6663 34.5255 18.6668C34.5255 18.6671 34.5255 18.6673 34.5255 18.6674C34.5255 18.6675 34.5255 18.6676 38.6242 18.5108C42.7229 18.3541 42.7229 18.3541 42.7229 18.3539C42.7229 18.3538 42.7229 18.3536 42.7229 18.3534C42.7229 18.3529 42.7228 18.3522 42.7228 18.3512C42.7227 18.3493 42.7226 18.3464 42.7225 18.3425C42.7222 18.3348 42.7217 18.3233 42.7212 18.3081C42.72 18.2777 42.7183 18.2326 42.716 18.1736C42.7115 18.0557 42.7049 17.8825 42.6965 17.6616C42.6797 17.2198 42.6557 16.5873 42.6269 15.8244C42.5693 14.2986 42.4925 12.252 42.4157 10.1678C42.3388 8.083 42.2621 5.96334 42.2046 4.29059C42.1759 3.45372 42.1521 2.73266 42.1355 2.1853C42.1272 1.91127 42.1209 1.68528 42.1167 1.51224C42.1145 1.4257 42.113 1.35607 42.1121 1.30248C42.1116 1.27584 42.1113 1.25516 42.1112 1.23973C42.111 1.22358 42.111 1.21739 42.111 1.21871H33.9076ZM34.5295 18.2714L33.9146 28.7875L42.104 29.2664L42.7189 18.7503L34.5295 18.2714ZM33.9076 29.0269C33.9076 32.0094 36.3253 34.4272 39.3079 34.4272V26.2238C40.856 26.2238 42.111 27.4788 42.111 29.0269H33.9076ZM39.3079 34.4272C42.2904 34.4272 44.7081 32.0094 44.7081 29.0269H36.5047C36.5047 27.4788 37.7598 26.2238 39.3079 26.2238V34.4272ZM44.706 28.8938L44.3626 18.3174L36.1635 18.5836L36.5069 29.16L44.706 28.8938ZM40.263 18.4505C44.3131 19.099 44.3132 19.0988 44.3132 19.0985C44.3132 19.0984 44.3133 19.0982 44.3133 19.098C44.3134 19.0975 44.3134 19.097 44.3135 19.0963C44.3138 19.095 44.314 19.0933 44.3144 19.0912C44.315 19.087 44.316 19.0812 44.3171 19.0738C44.3195 19.0591 44.3228 19.038 44.327 19.011C44.3355 18.9569 44.3477 18.8788 44.3631 18.779C44.3938 18.5795 44.4371 18.2929 44.489 17.9381C44.5925 17.2294 44.7305 16.2429 44.8688 15.13C45.1382 12.9623 45.4356 10.1077 45.4356 7.90386H37.2322C37.2322 9.55881 36.9941 11.9776 36.7281 14.1184C36.5987 15.1598 36.469 16.0865 36.3717 16.7523C36.3232 17.0847 36.2829 17.3508 36.255 17.5321C36.2411 17.6227 36.2302 17.6921 36.2231 17.7378C36.2195 17.7607 36.2168 17.7777 36.2151 17.7885C36.2142 17.7939 36.2136 17.7977 36.2132 17.8C36.2131 17.8011 36.2129 17.8018 36.2129 17.8022C36.2129 17.8023 36.2129 17.8024 36.2129 17.8024C36.2129 17.8023 36.2129 17.8022 36.2129 17.8022C36.2129 17.8021 36.2129 17.8019 40.263 18.4505Z" fill="#FCC436" mask="url(#path-2-inside-1_23_3357)"/>
</g>
<g id="Group_2">
<path id="Vector_3" d="M5.81844 1.69907C5.81844 1.69907 5.89084 4.39881 5.89084 6.96208C5.89084 8.88456 5.30693 10.0918 4.4748 10.5754L4.49331 29.0269C4.49331 29.7441 3.91193 30.3255 3.19473 30.3255C2.47752 30.3255 1.89615 29.7441 1.89615 29.0269L2.42259 10.5792C1.58696 10.0982 1 8.88956 1 6.96208C1 4.39881 1.0724 1.69907 1.0724 1.69907" stroke="#FCC436" stroke-width="1.29858" stroke-miterlimit="10" stroke-linecap="round" stroke-linejoin="round"/>
<path id="Vector_4" d="M3.44531 1.69907V7.92244" stroke="#FCC436" stroke-width="1.29858" stroke-miterlimit="10" stroke-linecap="round" stroke-linejoin="round"/>
<path id="Vector_5" d="M21.7771 28.5581C28.934 28.5581 34.7358 22.7563 34.7358 15.5994C34.7358 8.4425 28.934 2.64069 21.7771 2.64069C14.6202 2.64069 8.81836 8.4425 8.81836 15.5994C8.81836 22.7563 14.6202 28.5581 21.7771 28.5581Z" stroke="#FCC436" stroke-width="2.46102" stroke-miterlimit="10" stroke-linecap="round" stroke-linejoin="round"/>
<path id="Vector_6" d="M21.7799 23.515C26.1366 23.515 29.6684 19.9832 29.6684 15.6265C29.6684 11.2697 26.1366 7.73792 21.7799 7.73792C17.4232 7.73792 13.8914 11.2697 13.8914 15.6265C13.8914 19.9832 17.4232 23.515 21.7799 23.515Z" fill="#FCC436"/>
</g>
</g>
</g>
<path id="Rectangle 4" d="M1 7.56271H5.92203L5.10169 10.8441L4.72499 28.926C4.70639 29.8185 3.97763 30.5322 3.08502 30.5322C2.16572 30.5322 1.42591 29.7768 1.44505 28.8577L1.82034 10.8441L1 7.56271Z" fill="#FCC436"/>
</g>
</svg>
